<svg xmlns="http://www.w3.org/2000/svg" width="68" height="67.568" viewBox="0 0 68 67.568">
  <g id="Award-Winning_Designs_icon" data-name="Award-Winning Designs icon" transform="translate(0.105 32)">
    <path id="Path_478" data-name="Path 478" d="M12.784-29.888c0,1.056-1.689,2.111-3.8,2.111C-7.694-27.777.328-.539,18.906,6.007c8.022,2.745,9.289,4.012,9.711,9.924.422,3.8-.422,6.968-1.478,6.968-3.167,0-8.022,5.7-8.022,9.291,0,2.745,2.744,3.378,14.778,3.378s14.778-.633,14.778-3.378c0-3.59-4.856-9.291-8.022-9.291-1.056,0-1.9-3.167-1.478-6.968.422-5.912,1.689-7.179,9.711-9.924,18.578-6.546,26.6-33.784,9.922-33.784-2.111,0-3.8-1.056-3.8-2.111,0-1.267-8.444-2.112-21.111-2.112S12.784-31.155,12.784-29.888ZM42.761-28.41a127.231,127.231,0,0,1-17.944,0c-4.856-.422-.844-.845,9.078-.845S47.828-28.833,42.761-28.41ZM9.195-23.554C3.706-21.442,3.284-18.7,6.45-9.407,8.984-2.228,19.117,4.74,20.595.095c.633-1.267,1.9-2.112,2.956-1.267,1.056.633.844-1.267-.633-4.223-1.267-2.956-2.956-5.49-4.011-5.49-.844,0-1.9-3.378-2.322-7.39l-.844-7.39H52.261L50.573-16.8c-2.322,13.3-5.067,19-11.189,24.7-5.278,4.856-5.489,5.068-9.711,1.267-2.322-2.112-3.589-4.434-3.167-5.49.633-.845-1.267-1.267-4.222-.633C15.106,4.318,9.406.939,5.395-6.662,2.017-13,1.173-21.865,3.706-24.187c.633-.845,3.378-1.478,5.7-1.267C13.628-25.454,13.628-25.243,9.195-23.554Zm55.944,3.8C66.617-9.407,57.328,3.9,48.673,3.9c-1.689,0-.211-1.689,3.589-3.378,10.556-5.279,14.778-20.693,6.544-24.071-4.856-2.112-4.856-2.112.422-1.478C63.028-24.821,64.717-23.132,65.139-19.753ZM15.739-13c.633,4.856,2.322,8.024,3.378,7.39,1.267-.633,1.478.211.844,1.9-.633,1.9-1.9,3.378-2.956,3.378-2.956,0-8.444-7.813-9.711-14.358-1.267-5.7-.844-6.757,2.744-6.757C13.417-21.442,14.684-19.542,15.739-13Zm44.756-1.689C59.228-8.14,52.05,1.573,49.939-.539c-.422-.422.211-5.279,1.478-10.98,1.9-7.6,3.378-9.924,6.544-9.924C61.339-21.442,61.761-20.387,60.495-14.686ZM36.639,15.931a11.142,11.142,0,0,1-5.278,0c-1.478-.633-.422-1.056,2.533-1.056S37.906,15.3,36.639,15.931Zm-.633,4.856A2.116,2.116,0,0,1,33.895,22.9a2.27,2.27,0,0,1-2.111-2.112,2.116,2.116,0,0,1,2.111-2.112A2,2,0,0,1,36.006,20.788Zm2.744,5.7a35.767,35.767,0,0,1-9.5,0c-2.744-.422-.633-.845,4.644-.845S41.284,26.066,38.75,26.489Zm7.811,4.856c0,1.267-5.7,2.111-12.667,2.111s-12.667-.845-12.667-2.111,5.7-2.112,12.667-2.112S46.561,30.078,46.561,31.345Z" transform="translate(0 0)"/>
    <path id="Path_479" data-name="Path 479" d="M25.837-11.53a2.152,2.152,0,0,0,.633,3.167A2.152,2.152,0,0,0,29.637-9,2.152,2.152,0,0,0,29-12.163,2.152,2.152,0,0,0,25.837-11.53Z" transform="translate(28.322 21.549)"/>
    <path id="Path_480" data-name="Path 480" d="M5-5.888A2.313,2.313,0,0,0,7.323-3.777c1.056,0,1.478-1.056.845-2.112C7.534-7.155,6.478-8,5.845-8,5.422-8,5-7.155,5-5.888Z" transform="translate(5.672 26.676)"/>
  </g>
</svg>
