<svg xmlns="http://www.w3.org/2000/svg" width="67.418" height="67.946" viewBox="0 0 67.418 67.946">
  <g id="Successful_Project_icon" data-name="Successful Project icon" transform="translate(-1.96 512.032)">
    <path id="Path_481" data-name="Path 481" d="M2.3-511.7c-.7.69-.7.69,4.021,5.414,2.388,2.4,4.485,4.419,4.657,4.485a1.024,1.024,0,0,0,1.287-1.168c-.04-.133-2.07-2.229-4.5-4.657C2.973-512.4,2.987-512.4,2.3-511.7Z" transform="translate(0)"/>
    <path id="Path_482" data-name="Path 482" d="M103.163-511.783c-.544.318-.531.69.133,3.145a11.037,11.037,0,0,0,.862,2.574,1.037,1.037,0,0,0,1.473-.186l.265-.358-.637-2.4c-.531-1.964-.7-2.455-.969-2.667A.965.965,0,0,0,103.163-511.783Z" transform="translate(-87.438 -0.099)"/>
    <path id="Path_483" data-name="Path 483" d="M387.306-511.613c-.265.212-.438.7-.969,2.667l-.637,2.4.265.358a1.1,1.1,0,0,0,1.407.252,20.854,20.854,0,0,0,1.473-5.228A.947.947,0,0,0,387.306-511.613Z" transform="translate(-332.822 -0.162)"/>
    <path id="Path_484" data-name="Path 484" d="M436.678-507.622c-2.428,2.428-4.458,4.525-4.5,4.657a1.024,1.024,0,0,0,1.287,1.168c.172-.066,2.269-2.083,4.671-4.485,4.711-4.724,4.711-4.724,4.007-5.414S441.468-512.4,436.678-507.622Z" transform="translate(-373.105)"/>
    <path id="Path_485" data-name="Path 485" d="M74.02-463.686a6.706,6.706,0,0,0-2.906,1.7,4.307,4.307,0,0,1-4.352,1.221,7.8,7.8,0,0,0-3.755.04,6.113,6.113,0,0,0-4.087,4.273,4.491,4.491,0,0,1-3.211,3.384,6.112,6.112,0,0,0-4.79,6.051,8.981,8.981,0,0,0,.212,1.884,4.307,4.307,0,0,1-1.221,4.352,6.625,6.625,0,0,0-1.712,2.959,6.272,6.272,0,0,0,1.712,6.011,4.307,4.307,0,0,1,1.221,4.352,7.8,7.8,0,0,0,.04,3.755,6.283,6.283,0,0,0,4.392,4.127,4.372,4.372,0,0,1,3.317,3.317,6.283,6.283,0,0,0,4.127,4.392,7.8,7.8,0,0,0,3.755.04,4.6,4.6,0,0,1,2.879.172,8.012,8.012,0,0,1,1.5,1.062,6.613,6.613,0,0,0,2.932,1.7,6.272,6.272,0,0,0,6.011-1.712,4.307,4.307,0,0,1,4.352-1.221,7.856,7.856,0,0,0,3.808-.053,6.4,6.4,0,0,0,4.074-4.379c.5-1.884,1.407-2.733,3.649-3.437a6.538,6.538,0,0,0,3.941-3.6,8.117,8.117,0,0,0,.172-4.127,4.27,4.27,0,0,1,1.207-4.392A6.626,6.626,0,0,0,103-434.773a6.272,6.272,0,0,0-1.712-6.011,4.307,4.307,0,0,1-1.221-4.352,8.256,8.256,0,0,0,0-3.649,6.1,6.1,0,0,0-4.22-4.153c-.544-.186-1.168-.425-1.393-.531a4.4,4.4,0,0,1-2.136-2.866,6.283,6.283,0,0,0-4.127-4.392,7.8,7.8,0,0,0-3.755-.04,4.549,4.549,0,0,1-2.893-.186,6.885,6.885,0,0,1-1.5-1.088,9.627,9.627,0,0,0-1.552-1.141A6.42,6.42,0,0,0,74.02-463.686Zm3.344,2.163a8.983,8.983,0,0,1,1.552,1.141,9.358,9.358,0,0,0,1.632,1.181,6.355,6.355,0,0,0,4.206.411c2.747-.743,4.989.478,5.666,3.078a5.953,5.953,0,0,0,1.685,2.906,5.954,5.954,0,0,0,2.906,1.685,4.041,4.041,0,0,1,3.277,4.007,7.887,7.887,0,0,1-.2,1.659,6.355,6.355,0,0,0,.411,4.206,9.355,9.355,0,0,0,1.181,1.632c1.207,1.34,1.46,1.924,1.46,3.317s-.252,1.977-1.46,3.317a8.775,8.775,0,0,0-1.128,1.539,6.24,6.24,0,0,0-.464,4.3c.743,2.747-.478,4.989-3.078,5.666a6.365,6.365,0,0,0-4.591,4.591,4.031,4.031,0,0,1-4.007,3.277,7.882,7.882,0,0,1-1.659-.2,6.356,6.356,0,0,0-4.206.411,9.362,9.362,0,0,0-1.632,1.181c-1.34,1.208-1.924,1.46-3.317,1.46a4.038,4.038,0,0,1-3.291-1.433,6.161,6.161,0,0,0-5.865-1.619c-2.747.743-4.989-.478-5.666-3.078a5.953,5.953,0,0,0-1.685-2.906,5.858,5.858,0,0,0-2.813-1.659,4.223,4.223,0,0,1-2.959-2.269,3.063,3.063,0,0,1-.411-1.751,7.911,7.911,0,0,1,.2-1.672,6.355,6.355,0,0,0-.411-4.206,9.36,9.36,0,0,0-1.181-1.632c-1.207-1.34-1.46-1.924-1.46-3.317s.252-1.977,1.46-3.317a9.355,9.355,0,0,0,1.181-1.632,6.355,6.355,0,0,0,.411-4.206,7.91,7.91,0,0,1-.2-1.672,3.164,3.164,0,0,1,.4-1.752,4.092,4.092,0,0,1,2.786-2.216A6.609,6.609,0,0,0,60.8-455.8a4.093,4.093,0,0,1,2.216-2.786,3.164,3.164,0,0,1,1.752-.4,7.911,7.911,0,0,1,1.672.2,6.1,6.1,0,0,0,5.679-1.446,5.769,5.769,0,0,1,2.189-1.486A5.1,5.1,0,0,1,77.364-461.523Z" transform="translate(-39.93 -41.76)"/>
    <path id="Path_486" data-name="Path 486" d="M110.74-418.8a21.709,21.709,0,0,0-18.524,20.487,21.54,21.54,0,0,0,3.848,13.455,29.2,29.2,0,0,0,4.963,5.109,21.724,21.724,0,0,0,18.152,3.583,20.516,20.516,0,0,0,10.071-5.772,20.459,20.459,0,0,0,4.9-7.3,21.777,21.777,0,0,0-12.035-28.2,24.667,24.667,0,0,0-5.294-1.393c-.836-.093-.9-.08-1.234.265a.687.687,0,0,0-.279.77,1.392,1.392,0,0,0,.265.6,7.261,7.261,0,0,0,1.818.491,19.84,19.84,0,0,1,13.282,8.9,20.069,20.069,0,0,1,2.986,11.4,19.441,19.441,0,0,1-5.785,13.083,19.608,19.608,0,0,1-10.43,5.507,24.022,24.022,0,0,1-7.033,0,19.935,19.935,0,0,1-15.936-15.936,23.854,23.854,0,0,1,.053-7.4,21.653,21.653,0,0,1,2.654-6.648,23.069,23.069,0,0,1,5.056-5.427,20.724,20.724,0,0,1,8.174-3.477,10.156,10.156,0,0,0,1.619-.358.967.967,0,0,0,.372-1.261C112.16-418.862,111.815-418.969,110.74-418.8Z" transform="translate(-78.256 -80.798)"/>
    <path id="Path_487" data-name="Path 487" d="M168.241-341.49a4.332,4.332,0,0,0-.73.265c-.186.093-2.707,2.534-5.6,5.427l-5.268,5.255-2.1-2.057c-2.189-2.15-2.534-2.375-3.636-2.375s-1.433.212-3.423,2.176a15.085,15.085,0,0,0-2.15,2.4,3.446,3.446,0,0,0,0,2.521,46.3,46.3,0,0,0,4.405,4.657c3.875,3.848,4.22,4.153,4.963,4.432a4.079,4.079,0,0,0,1.924.239c1.685-.08,2.123-.332,4.14-2.322,1.5-1.486,1.7-1.738,1.7-2.123a.931.931,0,0,0-.955-.969c-.345,0-.65.226-1.951,1.513a16.9,16.9,0,0,1-1.964,1.725,3.267,3.267,0,0,1-2.4-.04c-.265-.146-2.2-1.977-4.3-4.087-3.516-3.516-3.822-3.875-3.822-4.286s.186-.637,1.7-2.15,1.752-1.7,2.15-1.7.677.239,2.853,2.388c2.176,2.176,2.441,2.388,2.853,2.388.438,0,.849-.385,6.13-5.666,5.387-5.387,5.692-5.666,6.144-5.666s.624.146,2.07,1.592c1.393,1.407,1.579,1.659,1.579,2.043,0,.411-.358.823-4.379,4.843-4.75,4.764-4.737,4.75-4.047,5.44s.677.7,5.48-4.087a53.727,53.727,0,0,0,4.684-4.936,3.551,3.551,0,0,0,.053-2.428,24.3,24.3,0,0,0-4.047-4.14A3.4,3.4,0,0,0,168.241-341.49Z" transform="translate(-124.147 -147.861)"/>
    <path id="Path_488" data-name="Path 488" d="M2.451-411.894a1.405,1.405,0,0,0-.451.876,1.19,1.19,0,0,0,.292.531c.239.265.77.464,2.508.942,1.207.332,2.322.6,2.468.6a1,1,0,0,0,.571-1.659A24.575,24.575,0,0,0,3.008-412,1.325,1.325,0,0,0,2.451-411.894Z" transform="translate(-0.035 -86.758)"/>
    <path id="Path_489" data-name="Path 489" d="M466.583-411.28a11.32,11.32,0,0,0-2.3.809,1,1,0,0,0,.571,1.659c.146,0,1.261-.265,2.468-.6,1.738-.478,2.269-.677,2.508-.942a.768.768,0,0,0,.013-1.168C469.475-412,469.024-411.97,466.583-411.28Z" transform="translate(-400.754 -86.895)"/>
    <path id="Path_490" data-name="Path 490" d="M5.073-122.332c-2.468.69-2.388.663-2.667,1.062a.9.9,0,0,0,.8,1.407,23.477,23.477,0,0,0,4.856-1.393.984.984,0,0,0-.65-1.645A22.16,22.16,0,0,0,5.073-122.332Z" transform="translate(-0.255 -337.495)"/>
    <path id="Path_491" data-name="Path 491" d="M464.291-122.735a1.011,1.011,0,0,0-.026,1.393,23.475,23.475,0,0,0,4.856,1.393.816.816,0,0,0,.7-.345.768.768,0,0,0-.013-1.168c-.239-.265-.77-.464-2.508-.942-1.207-.332-2.322-.6-2.468-.6A1.033,1.033,0,0,0,464.291-122.735Z" transform="translate(-400.731 -337.411)"/>
    <path id="Path_492" data-name="Path 492" d="M10.922-77.77c-.146.053-2.216,2.07-4.6,4.472C1.593-68.575,1.593-68.575,2.3-67.885s.677.7,5.467-4.074c2.428-2.428,4.458-4.525,4.5-4.657a1.126,1.126,0,0,0-.557-1.141A.679.679,0,0,0,10.922-77.77Z" transform="translate(0 -376.537)"/>
    <path id="Path_493" data-name="Path 493" d="M432.768-77.422a1.144,1.144,0,0,0-.518,1.128c.04.133,2.07,2.229,4.5,4.657,4.79,4.777,4.777,4.777,5.467,4.074s.7-.677-4.074-5.467a50.711,50.711,0,0,0-4.75-4.472A1.1,1.1,0,0,0,432.768-77.422Z" transform="translate(-373.175 -376.858)"/>
    <path id="Path_494" data-name="Path 494" d="M104.023-45.7a11.04,11.04,0,0,0-.862,2.574c-.5,1.844-.61,2.4-.5,2.667a.92.92,0,0,0,1.5.372c.265-.212.438-.7.969-2.667l.637-2.4-.265-.358A1.037,1.037,0,0,0,104.023-45.7Z" transform="translate(-87.303 -404.256)"/>
    <path id="Path_495" data-name="Path 495" d="M386.279-45.68a1.273,1.273,0,0,0-.279.491c0,.08.279,1.168.61,2.4.637,2.388.889,2.866,1.552,2.866a1.035,1.035,0,0,0,.942-.7,21.576,21.576,0,0,0-1.46-5.228A1.052,1.052,0,0,0,386.279-45.68Z" transform="translate(-333.082 -404.169)"/>
  </g>
</svg>
