<svg xmlns="http://www.w3.org/2000/svg" width="68.881" height="67.544" viewBox="0 0 68.881 67.544">
  <g id="Satisfied_Clients_icon" data-name="Satisfied Clients icon" transform="translate(-2 61)">
    <path id="Path_468" data-name="Path 468" d="M28.185-58.015c-2.985,3.788-3.214,11.71-.574,16.646,2.411,4.822,1.607,6.2-5.166,8.5-3.214,1.033-6.888,3.214-8.151,4.822-2.411,3.1-3.1,7.232-1.148,7.232.689,0,1.148-.689,1.148-1.607,0-3.1,4.592-7.232,9.528-8.725,4.362-1.148,5.51-1.148,7.921.459s2.985,1.607,6.084,0c2.87-1.492,4.248-1.607,8.036-.459,5.4,1.607,9.758,5.281,9.758,8.266,0,1.148.574,2.066,1.148,2.066,1.952,0,1.263-4.133-1.148-7.232-1.263-1.607-4.936-3.788-8.151-4.822-6.773-2.3-7.577-3.674-5.166-8.5,2.64-4.936,2.411-12.858-.574-16.646C39.895-60.311,38.4-61,34.958-61S30.022-60.311,28.185-58.015ZM39.78-56.752c1.148,1.033,2.066,2.3,2.066,2.87,0,1.378-8.5,1.148-10.1-.459-.689-.689-1.722-.918-2.181-.459-1.607,1.492,3.444,4.133,7.921,4.133,3.559,0,4.362.459,4.362,2.181,0,4.248-2.3,8.151-5.166,9.3-1.722.689-2.755,1.607-2.3,2.3a1.808,1.808,0,0,0,2.3.344c1.148-.344,1.722.23,1.722,1.837,0,1.952-.689,2.411-3.444,2.411-2.985,0-3.444-.344-3.444-3.329a16.805,16.805,0,0,0-1.722-6.544c-2.3-4.477-2.181-11.824.23-14.465C32.318-59.163,37.025-59.278,39.78-56.752Z" transform="translate(1.482 0)"/>
    <path id="Path_469" data-name="Path 469" d="M13.48-56.209a7.62,7.62,0,0,0-3.1,2.411c-1.722,2.181-1.952,10.1-.344,11.136,2.3,1.378,1.148,5.166-1.722,5.855C4.526-35.89,2-32.216,2-27.509c0,2.985.689,4.133,3.444,5.51,3.788,1.952,4.592,2.066,4.592.8,0-.574-1.378-1.607-2.985-2.3-2.411-1.148-2.87-2.066-2.526-5.166.23-2.985,1.263-4.133,4.707-5.97,3.788-1.952,4.248-2.64,3.788-5.51-.344-1.722-1.033-4.707-1.378-6.544-1.263-5.855,4.133-9.3,7.692-5.051,1.378,1.722,1.148,1.837-2.411,1.033s-3.788-.689-2.411,1.033a5.414,5.414,0,0,0,3.674,1.837c2.87,0,2.755,2.066-.344,5.4-1.378,1.492-1.837,2.64-1.148,2.64A1.424,1.424,0,0,1,18.072-38.3c0,1.952,5.4,4.592,6.314,3.1.344-.574-.459-1.378-1.837-1.722-1.837-.574-2.181-1.378-1.607-3.214,2.755-8.61,1.952-13.547-2.3-15.5A11.134,11.134,0,0,0,15.432-56.9C15.317-56.9,14.4-56.554,13.48-56.209Z" transform="translate(0 0.605)"/>
    <path id="Path_470" data-name="Path 470" d="M46.1-53.943c-2.181,2.3-2.64,9.988-.8,11.136,1.722,1.033,1.378,4.822-.574,5.625C43.8-36.837,43-36.034,43-35.46c0,.8,1.148.689,2.985-.115,2.411-1.148,2.87-1.952,2.3-4.592-.344-1.722-1.033-4.822-1.378-6.658-.8-4.133,1.033-6.888,4.707-6.888,4.592,0,5.51,6.888,1.492,11.136-1.378,1.492-1.837,2.64-1.148,2.64a1.4,1.4,0,0,1,1.378,1.378c0,.8,1.952,2.526,4.362,3.788,3.329,1.837,4.362,3.1,4.592,5.97.344,3.1-.115,4.018-2.526,5.166-1.607.689-2.985,1.722-2.985,2.3,0,1.263.8,1.148,4.592-.8,2.755-1.378,3.444-2.526,3.444-5.51,0-4.707-2.526-8.38-6.429-9.3-2.526-.689-2.87-1.263-2.181-3.329,1.952-6.084,1.952-11.25,0-13.432C53.562-56.583,48.51-56.7,46.1-53.943Z" transform="translate(6.068 0.749)"/>
    <path id="Path_471" data-name="Path 471" d="M51.056-21.656C49.563-19.7,47.5-18.1,46.349-18.1c-3.444,0-3.559,1.722-.574,4.592,3.1,2.87,5.281,2.411,2.87-.574-1.263-1.607-1.148-1.952.918-2.411a5.251,5.251,0,0,0,2.985-2.3c.459-1.263,1.148-1.148,3.214.918,1.492,1.492,2.411,3.1,2.181,3.788A12.262,12.262,0,0,0,57.6-10.75c.115,1.607-.459,1.952-2.3,1.492a9.4,9.4,0,0,0-5.97,1.263c-2.64,1.378-3.1,1.952-1.607,2.3a7.016,7.016,0,0,0,4.133-.8,3.725,3.725,0,0,1,3.788,0c3.1,1.952,4.477,1.148,4.477-2.87,0-2.066.8-4.477,1.722-5.281C64.372-16.72,63.913-18.1,60.7-18.1c-1.952,0-3.559-1.148-5.051-3.559L53.466-25.1Z" transform="translate(6.164 5.314)"/>
    <path id="Path_472" data-name="Path 472" d="M10.561-21.13a5.757,5.757,0,0,1-4.707,2.87c-3.444,0-3.674,1.263-.574,4.018,1.607,1.378,1.952,2.87,1.492,5.281C6.084-5.4,7.232-4.828,11.135-6.78c1.492-.918,2.87-.8,4.592,0a5.956,5.956,0,0,0,3.674.8c.8-.23-.23-1.263-2.3-2.3-1.952-1.033-4.477-1.607-5.4-1.263-1.263.459-1.837,0-1.837-1.607a4.114,4.114,0,0,0-1.148-3.1c-.8-.459-.115-1.837,1.722-3.444l2.87-2.755,2.87,2.64c2.066,1.952,2.411,2.985,1.492,3.9-2.64,2.64.344,2.87,3.1.23,3.674-3.444,3.674-4.592,0-4.592a5.757,5.757,0,0,1-4.707-2.87c-1.033-1.607-2.3-2.87-2.755-2.87S11.595-22.737,10.561-21.13Z" transform="translate(0.163 5.476)"/>
    <path id="Path_473" data-name="Path 473" d="M31.043-18.671a9.059,9.059,0,0,1-5.51,4.133c-4.133.918-4.362,1.722-1.148,4.707,1.952,1.722,2.3,2.985,1.722,6.429-.8,4.936-.689,5.051,3.9,2.64,3.1-1.607,3.788-1.607,6.888,0,4.592,2.411,4.707,2.3,3.9-2.64-.574-3.444-.23-4.707,1.722-6.429,3.214-2.985,2.985-3.788-1.148-4.707a9.059,9.059,0,0,1-5.51-4.133C34.831-20.508,33.8-22,33.454-22S32.076-20.508,31.043-18.671Zm4.133,3.559a3.354,3.354,0,0,0,3.559,2.3c2.755,0,2.755.115,1.148,2.526a10.461,10.461,0,0,0-1.837,5.281c0,2.3-.344,2.411-2.3,1.378a4.171,4.171,0,0,0-4.592,0c-1.952,1.033-2.3.918-2.3-1.148a11.28,11.28,0,0,0-1.837-5.166c-1.837-2.755-1.837-2.87,1.033-2.87,1.952,0,3.214-.8,3.674-2.3.344-1.263,1.148-2.3,1.722-2.3S34.831-16.375,35.176-15.112Z" transform="translate(2.987 5.772)"/>
  </g>
</svg>
